<svg width="1100" height="650" viewBox="20 30 1100 650" fill="none" xmlns="http://www.w3.org/2000/svg">
  <defs>
    <linearGradient id="sageBlue" x1="57" y1="145" x2="1068" y2="145" gradientUnits="userSpaceOnUse">
      <stop stop-color="#41AAFF"/>
      <stop offset="1" stop-color="#312B8E"/>
    </linearGradient>
    <linearGradient id="sageRed" x1="244" y1="296" x2="485" y2="539" gradientUnits="userSpaceOnUse">
      <stop stop-color="#F07A72"/>
      <stop offset="1" stop-color="#B31530"/>
    </linearGradient>
    <linearGradient id="sageLettersBlue" x1="88" y1="370" x2="282" y2="560" gradientUnits="userSpaceOnUse">
      <stop stop-color="#41AAFF"/>
      <stop offset="1" stop-color="#312B8E"/>
    </linearGradient>
    <linearGradient id="sageLettersRed" x1="302" y1="366" x2="520" y2="572" gradientUnits="userSpaceOnUse">
      <stop stop-color="#F07A72"/>
      <stop offset="1" stop-color="#B31530"/>
    </linearGradient>
    <linearGradient id="sageTail" x1="996" y1="179" x2="1068" y2="179" gradientUnits="userSpaceOnUse">
      <stop stop-color="#F26675"/>
      <stop offset="1" stop-color="#B21431"/>
    </linearGradient>
    <linearGradient id="sageSilver" x1="47" y1="218" x2="162" y2="218" gradientUnits="userSpaceOnUse">
      <stop stop-color="#F5F5F5"/>
      <stop offset="1" stop-color="#BFC2C8"/>
    </linearGradient>
  </defs>

  <rect x="20" y="30" width="1100" height="650" rx="42" fill="#17171B"/>

  <g transform="translate(18 0)">
    <path d="M57 209C104 163 179 145 291 152C389 158 477 184 580 184C639 184 695 174 760 154C852 126 950 123 1068 146C1008 186 948 194 879 191C800 188 731 178 644 186C545 195 445 195 341 187C224 178 132 180 57 209Z" fill="url(#sageBlue)"/>
    <path d="M277 157C412 91 545 59 677 51C817 43 936 66 1054 147C954 123 861 114 754 113C662 112 579 118 501 138C417 159 352 166 277 157Z" fill="url(#sageBlue)"/>
    <path d="M648 185C753 182 853 181 960 159C1002 151 1037 149 1060 162C1020 211 959 223 869 222C789 221 717 213 648 185Z" fill="#45A8FF"/>
    <path d="M994 191C1017 191 1042 184 1068 169C1068 193 1068 211 1061 223C1050 241 1024 239 994 191Z" fill="url(#sageTail)"/>
    <path d="M49 241C60 209 84 194 124 194H163C154 224 130 241 88 241H49Z" fill="url(#sageSilver)"/>
  </g>

  <text x="110" y="540" fill="url(#sageLettersBlue)" font-family="Arial Black, Arial, sans-serif" font-size="300" font-style="italic" font-weight="900">S</text>
  <text x="332" y="540" fill="url(#sageLettersRed)" font-family="Arial Black, Arial, sans-serif" font-size="300" font-style="italic" font-weight="900">A</text>
  <text x="602" y="540" fill="#F7F7F8" font-family="Arial Black, Arial, sans-serif" font-size="300" font-style="italic" font-weight="900">G</text>
  <text x="864" y="540" fill="#F7F7F8" font-family="Arial Black, Arial, sans-serif" font-size="300" font-style="italic" font-weight="900">E</text>

  <text x="559" y="660" text-anchor="middle" fill="#F7F7F8" font-family="Arial, sans-serif" font-size="46" font-style="italic" letter-spacing="9">ESTACIONAMIENTO</text>
</svg>